<svg xmlns="http://www.w3.org/2000/svg" xmlns:xlink="http://www.w3.org/1999/xlink" viewBox="0 0 220.88 35.96"><defs><style>.cls-1,.cls-2,.cls-7{fill:none;}.cls-2,.cls-7{stroke:#000;}.cls-2{stroke-width:0.75px;}.cls-3{clip-path:url(#clip-path);}.cls-4{fill:#54a1ff;}.cls-5{clip-path:url(#clip-path-2);}.cls-6{clip-path:url(#clip-path-3);}.cls-8{clip-path:url(#clip-path-4);}.cls-9{clip-path:url(#clip-path-5);}.cls-10{clip-path:url(#clip-path-6);}.cls-11{clip-path:url(#clip-path-7);}.cls-12{clip-path:url(#clip-path-8);}.cls-13{clip-path:url(#clip-path-9);}.cls-14{font-size:19.2px;font-family:PlayfairDisplaySC-Regular, Playfair Display SC;}.cls-15{opacity:0;}</style><clipPath id="clip-path"><polygon class="cls-1" points="216.06 23.17 217.59 26.44 220.86 27.97 217.59 29.5 216.06 32.77 214.54 29.5 211.26 27.97 214.54 26.44 216.06 23.17"/></clipPath><clipPath id="clip-path-2"><rect class="cls-1" x="106.69" y="25" width="5.94" height="5.94"/></clipPath><clipPath id="clip-path-3"><path class="cls-1" d="M109.66,25c-3.85-.05-3.85,6,0,5.94S113.51,25,109.66,25Z"/></clipPath><clipPath id="clip-path-4"><rect class="cls-1" x="46.58" y="25.73" width="5.94" height="5.94"/></clipPath><clipPath id="clip-path-5"><path class="cls-1" d="M49.54,25.73c-3.85-.06-3.85,6,0,5.93S53.4,25.67,49.54,25.73Z"/></clipPath><clipPath id="clip-path-6"><polyline class="cls-1" points="21.75 25 21.75 30.94 15.82 30.94 15.82 25"/></clipPath><clipPath id="clip-path-7"><path class="cls-1" d="M18.78,25c-3.85-.05-3.85,6,0,5.94S22.64,25,18.78,25Z"/></clipPath><clipPath id="clip-path-8"><rect class="cls-1" x="1.42" y="25" width="5.94" height="5.94"/></clipPath><clipPath id="clip-path-9"><path class="cls-1" d="M4.39,25c-3.85-.05-3.85,6,0,5.94S8.24,25,4.39,25Z"/></clipPath></defs><g id="Layer_2" data-name="Layer 2"><g id="Layer_1-2" data-name="Layer 1"><rect class="cls-1" x="0.5" y="20.48" width="219.75" height="14.99"/><line class="cls-2" x1="4.39" y1="35.46" x2="4.39" y2="21"/><line class="cls-2" x1="18.78" y1="35.46" x2="18.78" y2="21.25"/><line class="cls-2" x1="49.54" y1="35.46" x2="49.54" y2="21"/><line class="cls-2" x1="216.06" y1="35.46" x2="216.06" y2="20.74"/><line class="cls-2" x1="109.66" y1="35.21" x2="109.66" y2="20.74"/><g class="cls-3"><rect class="cls-4" x="211.26" y="23.17" width="9.6" height="9.6"/></g><g class="cls-5"><g class="cls-6"><rect class="cls-4" x="106.69" y="25" width="5.94" height="5.94"/></g></g><rect class="cls-7" x="0.5" y="20.48" width="219.88" height="14.99"/><g class="cls-8"><g class="cls-9"><rect class="cls-4" x="46.58" y="25.73" width="5.94" height="5.94"/></g></g><g class="cls-10"><g class="cls-11"><rect class="cls-4" x="15.82" y="25" width="5.94" height="5.94"/></g></g><g class="cls-12"><g class="cls-13"><rect class="cls-4" x="1.42" y="25" width="5.94" height="5.94"/></g></g><text class="cls-14" transform="translate(0.21 16.4)">A</text><text class="cls-14" transform="translate(12.3 16.4)">c</text><text class="cls-14" transform="translate(24.64 16.4)">c</text><text class="cls-14" transform="translate(36.99 16.4)">e</text><text class="cls-14" transform="translate(48.41 16.4)">l</text><text class="cls-14" transform="translate(59.41 16.4)">e</text><text class="cls-14" transform="translate(70.83 16.4)">r</text><text class="cls-14" transform="translate(82.81 16.4)">a</text><text class="cls-14" transform="translate(94.63 16.4)">t</text><text class="cls-14" transform="translate(106.74 16.4)">e</text><text class="cls-14" transform="translate(118.16 16.4)"> </text><text class="cls-14" transform="translate(122.94 16.4)">C</text><text class="cls-14" transform="translate(136.15 16.4)">o</text><text class="cls-14" transform="translate(149.99 16.4)">l</text><text class="cls-14" transform="translate(160.99 16.4)">u</text><text class="cls-14" transform="translate(173.62 16.4)">m</text><text class="cls-14" transform="translate(189.95 16.4)">b</text><text class="cls-14" transform="translate(201.53 16.4)">i</text><text class="cls-14" transform="translate(208.04 16.4)">a</text><rect class="cls-15" x="4.02" y="21" width="0.75" height="14.47"/><rect class="cls-15" x="49.17" y="21" width="0.75" height="14.47"/><rect class="cls-15" x="109.29" y="20.75" width="0.75" height="14.47"/><rect class="cls-15" x="215.69" y="20.75" width="0.75" height="14.72"/></g></g></svg>